<?xml version="1.0" standalone="no"?>
<!DOCTYPE svg PUBLIC "-//W3C//DTD SVG 20010904//EN"
 "http://www.w3.org/TR/2001/REC-SVG-20010904/DTD/svg10.dtd">
<svg version="1.0" xmlns="http://www.w3.org/2000/svg"
 width="914.000000pt" height="914.000000pt" viewBox="0 0 914.000000 914.000000"
 preserveAspectRatio="xMidYMid meet">
<metadata>
Created by potrace 1.11, written by Peter Selinger 2001-2013
</metadata>
<g transform="translate(0.000000,914.000000) scale(0.100000,-0.100000)"
fill="#000000" stroke="none">
<path d="M4420 9119 c-41 -4 -104 -10 -140 -13 -36 -3 -76 -8 -90 -11 -14 -3
-45 -8 -70 -11 -82 -11 -214 -54 -305 -98 -222 -109 -386 -309 -575 -701 -107
-221 -217 -515 -265 -705 -14 -59 -31 -133 -41 -186 l-6 -31 -831 0 c-458 0
-858 -4 -891 -7 -129 -16 -217 -73 -232 -152 -3 -19 -4 -288 0 -597 7 -564 9
-681 21 -1097 9 -305 21 -668 30 -895 2 -55 7 -170 10 -255 3 -85 8 -195 10
-245 3 -49 7 -148 10 -220 3 -71 7 -173 10 -225 2 -52 7 -151 10 -220 8 -168
14 -295 20 -415 3 -55 7 -143 10 -195 2 -52 7 -142 10 -200 8 -161 13 -272 20
-420 3 -74 8 -160 10 -190 2 -30 7 -113 10 -185 6 -144 12 -269 20 -420 3 -55
8 -149 10 -210 3 -60 7 -155 10 -210 3 -55 7 -149 10 -210 9 -195 15 -309 21
-365 4 -50 7 -66 18 -125 31 -156 120 -255 261 -292 32 -8 6033 -9 6103 -1
156 18 244 102 286 273 27 104 34 190 51 620 3 66 8 165 11 220 3 55 7 143 9
195 2 52 7 145 10 205 3 61 7 151 10 200 9 170 15 290 20 410 3 66 8 156 10
200 3 44 7 130 10 190 9 183 15 305 20 400 9 178 16 322 20 425 3 58 7 144 9
192 3 48 8 149 11 225 3 76 8 183 10 238 5 113 14 320 20 475 2 58 7 175 10
260 3 85 7 207 10 270 17 447 35 1295 39 1844 2 320 1 352 -16 386 -32 64
-109 104 -222 116 -36 4 -438 7 -892 8 l-827 1 -38 153 c-40 163 -106 381
-120 397 -5 5 -9 17 -9 27 0 10 -4 26 -10 36 -5 9 -31 69 -57 132 -60 149
-175 372 -245 480 -78 121 -221 257 -361 344 -93 58 -197 101 -317 131 -95 24
-125 29 -210 40 -25 3 -61 8 -80 10 -70 10 -277 12 -350 4z m275 -464 c411
-79 699 -416 878 -1030 53 -180 82 -316 69 -324 -13 -8 -2130 -6 -2138 2 -4 3
1 50 11 104 10 54 19 107 21 118 18 103 80 322 120 428 80 211 169 353 299
482 124 124 268 198 433 224 76 13 231 10 307 -4z m2982 -1838 c6 -4 9 -19 7
-34 -2 -16 -6 -84 -9 -153 -5 -121 -9 -194 -20 -425 -3 -60 -7 -159 -10 -220
-3 -60 -7 -157 -10 -215 -2 -58 -7 -163 -10 -235 -2 -71 -7 -170 -10 -220 -2
-49 -7 -151 -10 -225 -3 -74 -8 -180 -10 -235 -3 -55 -7 -156 -10 -225 -3 -69
-7 -165 -10 -215 -2 -49 -7 -151 -10 -225 -3 -74 -8 -178 -11 -230 -2 -52 -7
-147 -9 -210 -3 -63 -7 -162 -10 -220 -2 -58 -7 -161 -10 -230 -3 -69 -7 -168
-10 -220 -2 -52 -7 -156 -10 -230 -3 -74 -8 -170 -10 -213 -3 -42 -7 -137 -10
-210 -3 -72 -7 -170 -10 -217 -2 -47 -7 -141 -10 -210 -3 -69 -8 -159 -10
-200 -2 -41 -7 -138 -10 -215 -3 -77 -8 -171 -10 -210 -2 -38 -6 -131 -10
-205 -4 -74 -9 -160 -10 -190 -14 -258 -17 -311 -20 -350 -2 -25 -4 -54 -4
-65 -1 -20 -7 -20 -2813 -19 -1547 1 -2816 2 -2819 3 -4 0 -7 29 -8 63 -1 35
-4 86 -6 113 -8 112 -17 294 -30 560 -3 72 -8 159 -10 195 -2 36 -7 130 -10
210 -4 80 -8 174 -10 210 -2 36 -7 130 -10 210 -4 80 -8 179 -10 220 -2 41 -7
136 -10 210 -3 74 -8 171 -10 215 -2 44 -7 145 -10 225 -3 80 -8 177 -10 215
-2 39 -7 138 -10 220 -3 83 -8 186 -10 230 -4 75 -7 128 -20 440 -3 66 -7 165
-10 220 -3 55 -7 154 -10 220 -5 116 -10 228 -20 445 -2 58 -7 164 -10 235 -3
72 -8 175 -10 230 -3 55 -7 156 -10 225 -3 69 -8 163 -10 210 -2 47 -7 146
-10 220 -3 74 -7 173 -10 220 -2 47 -7 146 -10 220 -4 74 -8 169 -10 210 -2
41 0 77 4 80 13 7 6195 5 6208 -3z"/>
<path d="M2880 6452 l-56 -3 1 -2887 0 -2887 661 -2 c622 -3 662 -2 666 15 2
9 3 443 3 965 l-1 947 30 0 c17 0 245 3 506 6 261 2 489 6 505 8 118 13 163
18 185 21 625 93 1085 317 1385 675 174 209 304 487 364 781 18 86 24 130 36
244 6 48 6 386 1 435 -12 112 -20 167 -31 220 -3 14 -7 34 -9 45 -60 296 -212
585 -424 801 -161 165 -418 331 -647 419 -38 14 -86 33 -105 40 -37 15 -200
62 -241 70 -13 3 -46 9 -74 15 -27 5 -63 12 -80 15 -16 3 -39 7 -50 9 -11 2
-45 7 -75 11 -30 3 -67 9 -82 11 -40 6 -145 13 -293 20 -133 6 -2075 11 -2175
6z m2002 -1002 c245 -5 475 -69 622 -174 176 -126 289 -326 321 -566 6 -51 7
-281 1 -320 -2 -14 -8 -47 -12 -75 -4 -27 -8 -52 -9 -55 -1 -3 -7 -25 -14 -50
-37 -136 -98 -245 -191 -340 -100 -103 -195 -158 -341 -199 -154 -42 -205 -45
-684 -46 l-420 0 -1 912 0 912 30 3 c31 3 473 1 698 -2z"/>
</g>
</svg>
